<svg xmlns="http://www.w3.org/2000/svg" viewBox="0 0 200 200">
  <rect width="200" height="200" fill="#ffffff" />
  <!-- Top Left Square -->
  <rect x="20" y="20" width="50" height="50" fill="none" stroke="#000000" stroke-width="10" />
  <rect x="35" y="35" width="20" height="20" fill="#000000" />
  <!-- Top Right Square -->
  <rect x="130" y="20" width="50" height="50" fill="none" stroke="#000000" stroke-width="10" />
  <rect x="145" y="35" width="20" height="20" fill="#000000" />
  <!-- Bottom Left Square -->
  <rect x="20" y="130" width="50" height="50" fill="none" stroke="#000000" stroke-width="10" />
  <rect x="35" y="145" width="20" height="20" fill="#000000" />
  
  <!-- Random inner dots -->
  <rect x="90" y="20" width="10" height="10" fill="#000000" />
  <rect x="110" y="30" width="10" height="10" fill="#000000" />
  <rect x="90" y="50" width="10" height="20" fill="#000000" />
  <rect x="110" y="70" width="20" height="10" fill="#000000" />
  
  <rect x="20" y="90" width="20" height="10" fill="#000000" />
  <rect x="50" y="90" width="10" height="20" fill="#000000" />
  <rect x="70" y="80" width="10" height="10" fill="#000000" />
  
  <rect x="140" y="90" width="10" height="20" fill="#000000" />
  <rect x="160" y="100" width="20" height="10" fill="#000000" />
  <rect x="130" y="120" width="10" height="10" fill="#000000" />
  
  <rect x="90" y="100" width="20" height="20" fill="#000000" />
  <rect x="80" y="130" width="10" height="30" fill="#000000" />
  <rect x="100" y="140" width="20" height="10" fill="#000000" />
  <rect x="120" y="150" width="10" height="20" fill="#000000" />
  
  <rect x="140" y="140" width="20" height="20" fill="#000000" />
  <rect x="160" y="160" width="20" height="20" fill="#000000" />
  <rect x="140" y="170" width="10" height="10" fill="#000000" />
</svg>
